# AST/ASF file generated using VICON BodyLanguage
# -----------------------------------------------
:version 1.10
:name VICON
:units
  mass 1.0
  length 0.45
  angle deg
:documentation
   .ast/.asf automatically generated from VICON data using
   VICON BodyBuilder and BodyLanguage model FoxedUp or BRILLIANT.MOD
:root
   order TX TY TZ RX RY RZ
   axis XYZ
   position 0 0 0  
   orientation 0 0 0 
:bonedata
  begin
     id 1 
     name lhipjoint
     direction 0.653368 -0.678499 0.335782 
     length 2.51848 
     axis 0 0 0  XYZ
  end
  begin
     id 2 
     name lfemur
     direction 0.34202 -0.939693 0  
     length 6.57749  
     axis 0 0 20  XYZ
    dof rx ry rz
    limits (-160.0 20.0)
           (-70.0 70.0)
           (-60.0 70.0)
  end
  begin
     id 3 
     name ltibia
     direction 0.34202 -0.939693 0   
     length 7.94618   
     axis 0 0 20   XYZ
    dof rx
    limits (-10.0 170.0)
  end
  begin
     id 4 
     name lfoot
     direction 0.0811271 -0.222895 0.971461   
     length 2.31339   
     axis -90 7.62852e-016 20   XYZ
    dof rx rz
    limits (-45.0 90.0)
           (-70.0 20.0)
  end
  begin
     id 5 
     name ltoes
     direction 1.53568e-011 -4.21885e-011 1   
     length 1.15935   
     axis -90 7.62852e-016 20   XYZ
    dof rx
    limits (-90.0 20.0)
  end
  begin
     id 6 
     name rhipjoint
     direction -0.640058 -0.688614 0.340788   
     length 2.48149  
     axis 0 0 0  XYZ 
  end
  begin
     id 7 
     name rfemur
     direction -0.34202 -0.939693 0   
     length 6.57875   
     axis 0 0 -20   XYZ
    dof rx ry rz
    limits (-160.0 20.0)
           (-70.0 70.0)
           (-70.0 60.0)
  end
  begin
     id 8 
     name rtibia
     direction -0.34202 -0.939693 0   
     length 7.977   
     axis 0 0 -20   XYZ
    dof rx
    limits (-10.0 170.0)
 end
 begin
     id 9 
     name rfoot
     direction -0.0979793 -0.269196 0.958089   
     length 2.19857  
     axis -90 -7.62852e-016 -20   XYZ
    dof rx rz
    limits (-45.0 90.0)
           (-20.0 70.0)
  end
  begin
     id 10 
     name rtoes
     direction -1.53556e-011 -4.21868e-011 1   
     length 1.09838   
     axis -90 -7.62852e-016 -20   XYZ
    dof rx
    limits (-90.0 20.0)
  end
  begin
     id 11 
     name lowerback
     direction 0.0149039 0.998517 -0.0523597   
     length 2.10809   
     axis 0 0 0   XYZ
    dof rx ry rz
    limits (-20.0 45.0)
           (-30.0 30.0)
           (-30.0 30.0)
  end
  begin
     id 12 
     name upperback
     direction -0.00882659 0.999418 -0.0329624   
     length 2.1102   
     axis 0 0 0   XYZ
    dof rx ry rz
    limits (-20.0 45.0)
           (-30.0 30.0)
           (-30.0 30.0)
  end
  begin
     id 13 
     name thorax
     direction -0.0165585 0.999826 -0.0085833   
     length 2.11039   
     axis 0 0 0   XYZ
    dof rx ry rz
    limits (-20.0 45.0)
           (-30.0 30.0)
           (-30.0 30.0)
  end
  begin
     id 14 
     name lowerneck
     direction -0.0130877 0.999911 0.00260353   
     length 1.73253   
     axis 0 0 0   XYZ
    dof rx ry rz
    limits (-20.0 45.0)
           (-30.0 30.0)
           (-30.0 30.0)
  end
  begin
     id 15 
     name upperneck
     direction -0.0348454 0.928205 -0.370435   
     length 1.66692   
     axis 0 0 0   XYZ
    dof rx ry rz
    limits (-20.0 45.0)
           (-30.0 30.0)
           (-30.0 30.0)
  end
  begin
     id 16
     name head
     direction -0.00807754 0.992494 -0.122026  
     length 1.72765  
     axis 0 0 0   XYZ
    dof rx ry rz
    limits (-20.0 45.0)
           (-30.0 30.0)
           (-30.0 30.0)
  end
  begin
     id 17 
     name lclavicle
     direction 0.987582 0.144023 0.0627671  
     length 3.49235  
     axis 0 0 0   XYZ
    dof ry rz
    limits (-20.0 10.0)
           (0.0 20.0)
  end
  begin
     id 18 
     name lhumerus
     direction 1 -4.48958e-011 -1.45183e-018   
     length 5.41917   
     axis 180 -30 -90   XYZ
    dof rx ry rz
    limits (-60.0 90.0)
           (-90.0 90.0)
           (-90.0 90.0)
  end
  begin
     id 19
     name lradius
     direction 1 -4.48999e-011 5.75106e-027   
     length 2.44373   
     axis 180 -30 -90   XYZ
    dof rx
    limits (-10.0 170.0)
  end
  begin
     id 20
     name lwrist
     direction 1 -4.48987e-011 1.53461e-026   
     length 1.22186   
     axis -1.09697e-014 90 90   XYZ
    dof ry
    limits (-180.0 0.0)
 end
  begin
     id 21 
     name lhand
     direction 1 -4.48881e-011 3.06923e-026   
     length 0.727502   
     axis -1.95843e-014 90 90   XYZ
    dof rx rz
    limits (-90.0 90.0)
           (-45.0 45.0)
  end
  begin
     id 22 
     name lfingers
     direction 1 -4.48907e-011 6.13845e-026   
     length 0.586531   
     axis -3.91686e-014 90 90   XYZ
    dof rx
    limits (0.0 90.0)
  end
  begin
     id 23
     name lthumb
     direction 0.707107 -6.3487e-011 0.707107   
     length 0.842145   
     axis -90 45 2.85299e-015   XYZ
    dof rx rz
    limits (-45.0 45.0)
           (-45.0 45.0)
  end
  begin
     id 24 
     name rclavicle
     direction -0.980998 0.169556 0.0943023   
     length 3.29272  
     axis 0 0 0   XYZ 
    dof ry rz
    limits (-10.0 20.0)
           (-20.0 0.0)
  end
  begin
     id 25 
     name rhumerus
     direction -1 -1.83355e-005 2.45537e-005  
     length 5.58976   
     axis 180 30 90   XYZ
    dof rx ry rz
    limits (-90.0 60.0)
           (-90.0 90.0)
           (-90.0 90.0)
  end
  begin
     id 26 
     name rradius
     direction -1 -4.48967e-011 5.97228e-027   
     length 2.4806   
     axis 180 30 90   XYZ
    dof rx
    limits (-10.0 170.0)
  end
  begin
     id 27 
     name rwrist
     direction -1 -4.48963e-011 1.53461e-026   
     length 1.2403   
     axis -1.09697e-014 -90 -90   XYZ
    dof ry
    limits (-180.0 0.0)
  end
  begin
     id 28
     name rhand
     direction -1 -4.48881e-011 3.06923e-026   
     length 0.816009   
     axis -1.95843e-014 -90 -90   XYZ
    dof rx rz
    limits (-90.0 90.0)
           (-45.0 45.0)
  end
  begin
     id 29
     name rfingers
     direction -1 -4.49018e-011 6.13845e-026   
     length 0.657887   
     axis -3.91686e-014 -90 -90   XYZ
    dof rx
    limits (0.0 90.0)
  end
  begin
     id 30
     name rthumb
     direction -0.707107 -6.34872e-011 0.707107   
     length 0.944599   
     axis -90 -45 -2.85299e-015   XYZ
    dof rx rz
    limits (-45.0 45.0)
           (-45.0 45.0)
  end
:hierarchy
  begin
    root lhipjoint rhipjoint lowerback
    lhipjoint lfemur
    lfemur ltibia
    ltibia lfoot
    lfoot ltoes
    rhipjoint rfemur
    rfemur rtibia
    rtibia rfoot
    rfoot rtoes
    lowerback upperback
    upperback thorax
    thorax lowerneck lclavicle rclavicle
    lowerneck upperneck
    upperneck head
    lclavicle lhumerus
    lhumerus lradius
    lradius lwrist
    lwrist lhand lthumb
    lhand lfingers
    rclavicle rhumerus
    rhumerus rradius
    rradius rwrist
    rwrist rhand rthumb
    rhand rfingers
  end

#!OML:ASF F:\VICON\USERDATA\INSTALL\rory3\rory3.ASF
:FULLY-SPECIFIED
:DEGREES
108
root 0.520411 16.3026 -13.5033 31.6342 0.315351 -1.11303
lowerback -17.8003 0.268988 -3.36981
upperback -10.7433 0.845969 2.24499
thorax -1.65193 0.677497 4.41663
lowerneck -16.9331 1.04889 5.55663
upperneck 44.5897 -1.6586 2.24536
head 20.5847 0.6945 -0.196614
rclavicle -6.00081e-015 7.95139e-015
rhumerus -51.3365 7.58438 -81.8887
rradius 18.7014
rwrist -6.08382
rhand 17.3713 7.17638
rfingers 7.12502
rthumb 42.0789 -17.3872
lclavicle -6.00081e-015 7.95139e-015
lhumerus -50.2431 3.79289 80.1886
lradius 44.3649
lwrist 5.85108
lhand 1.93618 19.1732
lfingers 7.12502
lthumb 27.4435 47.1941
rfemur -23.6929 -4.31572 32.5464
rtibia 43.428
rfoot 22.724 -24.4252
rtoes 18.9723
lfemur -52.9862 5.21977 -36.3944
ltibia 40.3952
lfoot -40.6308 25.804
ltoes 13.3898
109
root 0.521631 16.3054 -13.4948 31.6424 0.285364 -1.28489
lowerback -17.7202 0.207778 -3.27864
upperback -10.9046 0.748772 2.28823
thorax -1.85746 0.632346 4.39312
lowerneck -16.1396 0.87527 4.34222
upperneck 43.3149 -2.01058 3.73562
head 19.5156 0.510683 0.659704
rclavicle 9.31803e-016 -1.19271e-014
rhumerus -51.5217 7.8003 -81.9899
rradius 18.7905
rwrist -6.06546
rhand 17.0834 7.41105
rfingers 7.12502
rthumb 41.809 -17.2427
lclavicle 9.31803e-016 -1.19271e-014
lhumerus -50.4358 3.90405 80.0054
lradius 44.2538
lwrist 5.94688
lhand 1.91234 19.2828
lfingers 7.12502
lthumb 27.4207 47.3073
rfemur -23.6958 -4.2661 32.6778
rtibia 43.3432
rfoot 23.4387 -23.9013
rtoes 17.1302
lfemur -53.0403 5.3631 -36.2702
ltibia 40.4446
lfoot -40.5042 26.0472
ltoes 12.5137
110
root 0.522014 16.3056 -13.4885 31.6516 0.365386 -1.51695
lowerback -17.5504 0.116892 -3.09677
upperback -11.1277 0.598246 2.3843
thorax -2.17057 0.560424 4.36517
lowerneck -16.1048 0.959409 3.90705
upperneck 42.7829 -1.98511 4.4127
head 19.1805 0.5274 1.05629
rclavicle 2.33137e-014 3.37934e-014
rhumerus -51.7342 7.97396 -81.9412
rradius 18.8104
rwrist -5.92917
rhand 17.1952 7.20714
rfingers 7.12502
rthumb 41.9138 -17.4117
lclavicle 2.33137e-014 3.37934e-014
lhumerus -50.857 4.13201 79.7766
lradius 44.4076
lwrist 6.04373
lhand 2.00529 19.6187
lfingers 7.12502
lthumb 27.5096 47.6291
rfemur -23.6743 -4.2309 32.9345
rtibia 43.2517
rfoot 23.9188 -23.6166
rtoes 15.8727
lfemur -53.0932 5.41806 -36.01
ltibia 40.5181
lfoot -40.5106 26.1281
ltoes 11.8118
111
root 0.523418 16.3061 -13.4797 31.5722 0.334976 -1.68381
lowerback -17.505 0.101864 -2.97682
upperback -11.1354 0.559492 2.37273
thorax -2.19519 0.53407 4.2779
lowerneck -16.9163 1.1421 3.98379
upperneck 42.5441 -1.89616 4.68294
head 19.2683 0.616028 1.19242
rclavicle -1.75676e-014 -1.43125e-014
rhumerus -51.5426 7.94953 -81.9013
rradius 18.8037
rwrist -5.96318
rhand 17.3979 6.6006
rfingers 7.12502
rthumb 42.1038 -17.9546
lclavicle -1.75676e-014 -1.43125e-014
lhumerus -50.9144 4.27345 79.5174
lradius 44.6621
lwrist 6.12111
lhand 2.25241 19.7033
lfingers 7.12502
lthumb 27.746 47.6758
rfemur -23.5524 -4.26291 33.0502
rtibia 43.168
rfoot 24.2976 -23.3467
rtoes 14.6967
lfemur -53.0327 5.49108 -35.8238
ltibia 40.5851
lfoot -40.5798 26.1966
ltoes 11.7122
112
root 0.520764 16.3081 -13.4725 31.4638 0.137111 -1.72486
lowerback -17.3801 0.128581 -3.06592
upperback -11.1951 0.603673 2.22292
thorax -2.32788 0.559283 4.17322
lowerneck -17.5555 1.27234 4.09249
upperneck 42.2835 -1.94122 5.06899
head 19.3008 0.672253 1.35037
rclavicle 2.7892e-015 -1.35174e-014
rhumerus -51.4378 7.55494 -81.8527
rradius 18.5834
rwrist -5.71837
rhand 17.2578 6.90019
rfingers 7.12502
rthumb 41.9725 -17.6991
lclavicle 2.7892e-015 -1.35174e-014
lhumerus -50.9033 4.25749 79.1276
lradius 44.5537
lwrist 6.25752
lhand 2.2384 19.4145
lfingers 7.12502
lthumb 27.7326 47.3892
rfemur -23.4134 -4.17031 32.989
rtibia 43.0755
rfoot 24.7838 -22.9928
rtoes 12.8243
lfemur -52.9454 5.52272 -35.7618
ltibia 40.6666
lfoot -40.6557 26.541
ltoes 11.5091
113
root 0.517516 16.3067 -13.4668 31.4756 0.186272 -1.79405
lowerback -17.3678 0.0944879 -3.04578
upperback -11.4314 0.556098 2.12382
thorax -2.58577 0.540147 4.04811
lowerneck -17.7181 1.34901 4.11324
upperneck 42.0213 -1.99107 5.44291
head 19.1958 0.705456 1.51001
rclavicle -3.57968e-015 -1.31198e-014
rhumerus -51.7563 7.18089 -81.7801
rradius 18.3261
rwrist -5.24049
rhand 16.7298 7.87157
rfingers 7.12502
rthumb 41.4773 -16.8912
lclavicle -3.57968e-015 -1.31198e-014
lhumerus -51.2178 4.11461 78.8113
lradius 44.4627
lwrist 6.3122
lhand 2.15245 19.3906
lfingers 7.12502
lthumb 27.6504 47.3785
rfemur -23.3977 -4.22934 33.0966
rtibia 43.0067
rfoot 24.978 -22.9599
rtoes 12.6892
lfemur -53.0647 5.55452 -35.6686
ltibia 40.6745
lfoot -39.9427 27.4927
ltoes 9.41469
